<!-- Generated by graphviz version 14.1.3 (20260303.0454)
 -->
<!-- Title: classPayment Pages: 1 -->
<svg width="602pt" height="568pt"
 viewBox="0.00 0.00 602.00 568.00" xmlns="http://www.w3.org/2000/svg" xmlns:xlink="http://www.w3.org/1999/xlink">
<g id="graph0" class="graph" transform="scale(1 1) rotate(0) translate(14.4 553.8)">
<title>classPayment</title>
<!-- Application -->
<g id="node1" class="node">
<title>Application</title>
<path fill="#f2f8f4" stroke="none" d="M345.5,-539.4C345.5,-539.4 277.5,-539.4 277.5,-539.4 271.5,-539.4 265.5,-533.4 265.5,-527.4 265.5,-527.4 265.5,-494.6 265.5,-494.6 265.5,-488.6 271.5,-482.6 277.5,-482.6 277.5,-482.6 345.5,-482.6 345.5,-482.6 351.5,-482.6 357.5,-488.6 357.5,-494.6 357.5,-494.6 357.5,-527.4 357.5,-527.4 357.5,-533.4 351.5,-539.4 345.5,-539.4"/>
<polygon fill="#185b3e" stroke="none" points="265.5,-511 265.5,-539.4 344.83,-539.4 344.83,-511 265.5,-511"/>
<polygon fill="none" stroke="#8caf9a" points="265.5,-511 265.5,-539.4 344.83,-539.4 344.83,-511 265.5,-511"/>
<text xml:space="preserve" text-anchor="start" x="272.5" y="-522.6" font-family="Arial" font-weight="bold" font-size="12.00" fill="white">Application</text>
<polygon fill="#f7fbf8" stroke="none" points="265.5,-482.6 265.5,-511 344.83,-511 344.83,-482.6 265.5,-482.6"/>
<polygon fill="none" stroke="#8caf9a" points="265.5,-482.6 265.5,-511 344.83,-511 344.83,-482.6 265.5,-482.6"/>
<text xml:space="preserve" text-anchor="start" x="272.5" y="-492" font-family="Arial" font-size="12.00">id · status</text>
</g>
<!-- WorkSession -->
<g id="node2" class="node">
<title>WorkSession</title>
<path fill="#f2f8f4" stroke="none" d="M378,-422.6C378,-422.6 245,-422.6 245,-422.6 239,-422.6 233,-416.6 233,-410.6 233,-410.6 233,-320.6 233,-320.6 233,-314.6 239,-308.6 245,-308.6 245,-308.6 378,-308.6 378,-308.6 384,-308.6 390,-314.6 390,-320.6 390,-320.6 390,-410.6 390,-410.6 390,-416.6 384,-422.6 378,-422.6"/>
<polygon fill="#185b3e" stroke="none" points="233,-394.2 233,-422.6 377.71,-422.6 377.71,-394.2 233,-394.2"/>
<polygon fill="none" stroke="#8caf9a" points="233,-394.2 233,-422.6 377.71,-422.6 377.71,-394.2 233,-394.2"/>
<text xml:space="preserve" text-anchor="start" x="267.35" y="-405.8" font-family="Arial" font-weight="bold" font-size="12.00" fill="white">WorkSession</text>
<polygon fill="#f7fbf8" stroke="none" points="233,-351.4 233,-394.2 377.71,-394.2 377.71,-351.4 233,-351.4"/>
<polygon fill="none" stroke="#8caf9a" points="233,-351.4 233,-394.2 377.71,-394.2 377.71,-351.4 233,-351.4"/>
<text xml:space="preserve" text-anchor="start" x="240" y="-375.2" font-family="Arial" font-size="12.00">id · agreementVersion</text>
<text xml:space="preserve" text-anchor="start" x="242.67" y="-360.8" font-family="Arial" font-size="12.00">status: SessionStatus</text>
<polygon fill="none" stroke="#8caf9a" points="233,-308.6 233,-351.4 377.71,-351.4 377.71,-308.6 233,-308.6"/>
<text xml:space="preserve" text-anchor="start" x="240" y="-332.4" font-family="Arial" font-size="12.00">isAgreementConfirmed()</text>
<text xml:space="preserve" text-anchor="start" x="279.01" y="-318" font-family="Arial" font-size="12.00">canStart()</text>
</g>
<!-- Application&#45;&gt;WorkSession -->
<g id="edge1" class="edge">
<title>Application&#45;&gt;WorkSession</title>
<path fill="none" stroke="#668071" d="M311.5,-482.69C311.5,-465.62 311.5,-443.03 311.5,-422.31"/>
<text xml:space="preserve" text-anchor="middle" x="327.34" y="-449.6" font-family="Arial" font-size="10.00">sinh ca</text>
<text xml:space="preserve" text-anchor="middle" x="317.42" y="-432" font-family="Arial" font-size="10.00">0..*</text>
<text xml:space="preserve" text-anchor="middle" x="305.58" y="-467" font-family="Arial" font-size="10.00">1</text>
</g>
<!-- AgreementSnapshot -->
<g id="node3" class="node">
<title>AgreementSnapshot</title>
<path fill="#f2f8f4" stroke="none" d="M561,-227.2C561,-227.2 414,-227.2 414,-227.2 408,-227.2 402,-221.2 402,-215.2 402,-215.2 402,-168 402,-168 402,-162 408,-156 414,-156 414,-156 561,-156 561,-156 567,-156 573,-162 573,-168 573,-168 573,-215.2 573,-215.2 573,-221.2 567,-227.2 561,-227.2"/>
<polygon fill="#185b3e" stroke="none" points="402,-198.8 402,-227.2 563.41,-227.2 563.41,-198.8 402,-198.8"/>
<polygon fill="none" stroke="#8caf9a" points="402,-198.8 402,-227.2 563.41,-227.2 563.41,-198.8 402,-198.8"/>
<text xml:space="preserve" text-anchor="start" x="424.03" y="-210.4" font-family="Arial" font-weight="bold" font-size="12.00" fill="white">AgreementSnapshot</text>
<polygon fill="#f7fbf8" stroke="none" points="402,-156 402,-198.8 563.41,-198.8 563.41,-156 402,-156"/>
<polygon fill="none" stroke="#8caf9a" points="402,-156 402,-198.8 563.41,-198.8 563.41,-156 402,-156"/>
<text xml:space="preserve" text-anchor="start" x="409" y="-179.8" font-family="Arial" font-size="12.00">laborAmount · serviceFee</text>
<text xml:space="preserve" text-anchor="start" x="409" y="-165.4" font-family="Arial" font-size="12.00">totalDue · feePolicyVersion</text>
</g>
<!-- WorkSession&#45;&gt;AgreementSnapshot -->
<g id="edge2" class="edge">
<title>WorkSession&#45;&gt;AgreementSnapshot</title>
<path fill="none" stroke="#668071" d="M375.17,-302.38C401.11,-277.03 430.12,-248.68 452.16,-227.14"/>
<polygon fill="#668071" stroke="#668071" points="375.29,-302.26 374.25,-307.19 369.29,-308.13 370.33,-303.19 375.29,-302.26"/>
<text xml:space="preserve" text-anchor="middle" x="447.22" y="-237.24" font-family="Arial" font-size="10.00">1</text>
<text xml:space="preserve" text-anchor="middle" x="373.58" y="-292.66" font-family="Arial" font-size="10.00">1</text>
</g>
<!-- PaymentRecord -->
<g id="node4" class="node">
<title>PaymentRecord</title>
<path fill="#f2f8f4" stroke="none" d="M207,-248.6C207,-248.6 12,-248.6 12,-248.6 6,-248.6 0,-242.6 0,-236.6 0,-236.6 0,-146.6 0,-146.6 0,-140.6 6,-134.6 12,-134.6 12,-134.6 207,-134.6 207,-134.6 213,-134.6 219,-140.6 219,-146.6 219,-146.6 219,-236.6 219,-236.6 219,-242.6 213,-248.6 207,-248.6"/>
<polygon fill="#185b3e" stroke="none" points="0,-220.2 0,-248.6 208.79,-248.6 208.79,-220.2 0,-220.2"/>
<polygon fill="none" stroke="#8caf9a" points="0,-220.2 0,-248.6 208.79,-248.6 208.79,-220.2 0,-220.2"/>
<text xml:space="preserve" text-anchor="start" x="58.71" y="-231.8" font-family="Arial" font-weight="bold" font-size="12.00" fill="white">PaymentRecord</text>
<polygon fill="#f7fbf8" stroke="none" points="0,-163 0,-220.2 208.79,-220.2 208.79,-163 0,-163"/>
<polygon fill="none" stroke="#8caf9a" points="0,-163 0,-220.2 208.79,-220.2 208.79,-163 0,-163"/>
<text xml:space="preserve" text-anchor="start" x="7" y="-201.2" font-family="Arial" font-size="12.00">status · totalFunded</text>
<text xml:space="preserve" text-anchor="start" x="7" y="-186.8" font-family="Arial" font-size="12.00">heldAmount · workerPaid</text>
<text xml:space="preserve" text-anchor="start" x="7" y="-172.4" font-family="Arial" font-size="12.00">feeRecognized · employerRefunded</text>
<polygon fill="none" stroke="#8caf9a" points="0,-134.6 0,-163 208.79,-163 208.79,-134.6 0,-134.6"/>
<text xml:space="preserve" text-anchor="start" x="7" y="-144" font-family="Arial" font-size="12.00">isBalanced()</text>
</g>
<!-- WorkSession&#45;&gt;PaymentRecord -->
<g id="edge3" class="edge">
<title>WorkSession&#45;&gt;PaymentRecord</title>
<path fill="none" stroke="#668071" d="M245.92,-308.76C223.22,-289.43 197.8,-267.78 175.1,-248.46"/>
<text xml:space="preserve" text-anchor="middle" x="188.6" y="-249.18" font-family="Arial" font-size="10.00">1</text>
<text xml:space="preserve" text-anchor="middle" x="232.42" y="-302.04" font-family="Arial" font-size="10.00">1</text>
</g>
<!-- Dispute -->
<g id="node7" class="node">
<title>Dispute</title>
<path fill="#f2f8f4" stroke="none" d="M361,-227.2C361,-227.2 262,-227.2 262,-227.2 256,-227.2 250,-221.2 250,-215.2 250,-215.2 250,-168 250,-168 250,-162 256,-156 262,-156 262,-156 361,-156 361,-156 367,-156 373,-162 373,-168 373,-168 373,-215.2 373,-215.2 373,-221.2 367,-227.2 361,-227.2"/>
<polygon fill="#185b3e" stroke="none" points="250,-198.8 250,-227.2 363.4,-227.2 363.4,-198.8 250,-198.8"/>
<polygon fill="none" stroke="#8caf9a" points="250,-198.8 250,-227.2 363.4,-227.2 363.4,-198.8 250,-198.8"/>
<text xml:space="preserve" text-anchor="start" x="284.7" y="-210.4" font-family="Arial" font-weight="bold" font-size="12.00" fill="white">Dispute</text>
<polygon fill="#f7fbf8" stroke="none" points="250,-156 250,-198.8 363.4,-198.8 363.4,-156 250,-156"/>
<polygon fill="none" stroke="#8caf9a" points="250,-156 250,-198.8 363.4,-198.8 363.4,-156 250,-156"/>
<text xml:space="preserve" text-anchor="start" x="257" y="-179.8" font-family="Arial" font-size="12.00">status · openedBy</text>
<text xml:space="preserve" text-anchor="start" x="288.35" y="-165.4" font-family="Arial" font-size="12.00">reason</text>
</g>
<!-- WorkSession&#45;&gt;Dispute -->
<g id="edge6" class="edge">
<title>WorkSession&#45;&gt;Dispute</title>
<path fill="none" stroke="#668071" d="M311.5,-308.76C311.5,-281.88 311.5,-250.5 311.5,-227.14"/>
<text xml:space="preserve" text-anchor="middle" x="317.42" y="-236.83" font-family="Arial" font-size="10.00">0..*</text>
<text xml:space="preserve" text-anchor="middle" x="305.58" y="-293.07" font-family="Arial" font-size="10.00">1</text>
</g>
<!-- PaymentEvent -->
<g id="node5" class="node">
<title>PaymentEvent</title>
<path fill="#f2f8f4" stroke="none" d="M170,-78.4C170,-78.4 45,-78.4 45,-78.4 39,-78.4 33,-72.4 33,-66.4 33,-66.4 33,-19.2 33,-19.2 33,-13.2 39,-7.2 45,-7.2 45,-7.2 170,-7.2 170,-7.2 176,-7.2 182,-13.2 182,-19.2 182,-19.2 182,-66.4 182,-66.4 182,-72.4 176,-78.4 170,-78.4"/>
<polygon fill="#185b3e" stroke="none" points="33,-50 33,-78.4 172.41,-78.4 172.41,-50 33,-50"/>
<polygon fill="none" stroke="#8caf9a" points="33,-50 33,-78.4 172.41,-78.4 172.41,-50 33,-50"/>
<text xml:space="preserve" text-anchor="start" x="61.36" y="-61.6" font-family="Arial" font-weight="bold" font-size="12.00" fill="white">PaymentEvent</text>
<polygon fill="#f7fbf8" stroke="none" points="33,-7.2 33,-50 172.41,-50 172.41,-7.2 33,-7.2"/>
<polygon fill="none" stroke="#8caf9a" points="33,-7.2 33,-50 172.41,-50 172.41,-7.2 33,-7.2"/>
<text xml:space="preserve" text-anchor="start" x="40" y="-31" font-family="Arial" font-size="12.00">operationId · type</text>
<text xml:space="preserve" text-anchor="start" x="40" y="-16.6" font-family="Arial" font-size="12.00">fundingDelta · feeDelta</text>
</g>
<!-- PaymentRecord&#45;&gt;PaymentEvent -->
<g id="edge4" class="edge">
<title>PaymentRecord&#45;&gt;PaymentEvent</title>
<path fill="none" stroke="#668071" d="M108.74,-134.68C108.48,-115.72 108.2,-95.11 107.97,-78.32"/>
<text xml:space="preserve" text-anchor="middle" x="114.06" y="-87.92" font-family="Arial" font-size="10.00">0..*</text>
<text xml:space="preserve" text-anchor="middle" x="102.65" y="-119.08" font-family="Arial" font-size="10.00">1</text>
</g>
<!-- FeePolicy -->
<g id="node6" class="node">
<title>FeePolicy</title>
<path fill="#f2f8f4" stroke="none" d="M534,-408.2C534,-408.2 441,-408.2 441,-408.2 435,-408.2 429,-402.2 429,-396.2 429,-396.2 429,-335 429,-335 429,-329 435,-323 441,-323 441,-323 534,-323 534,-323 540,-323 546,-329 546,-335 546,-335 546,-396.2 546,-396.2 546,-402.2 540,-408.2 534,-408.2"/>
<polygon fill="#185b3e" stroke="none" points="429,-379.8 429,-408.2 536.38,-408.2 536.38,-379.8 429,-379.8"/>
<polygon fill="none" stroke="#8caf9a" points="429,-379.8 429,-408.2 536.38,-408.2 536.38,-379.8 429,-379.8"/>
<text xml:space="preserve" text-anchor="start" x="454.67" y="-391.4" font-family="Arial" font-weight="bold" font-size="12.00" fill="white">FeePolicy</text>
<polygon fill="#f7fbf8" stroke="none" points="429,-351.4 429,-379.8 536.38,-379.8 536.38,-351.4 429,-351.4"/>
<polygon fill="none" stroke="#8caf9a" points="429,-351.4 429,-379.8 536.38,-379.8 536.38,-351.4 429,-351.4"/>
<text xml:space="preserve" text-anchor="start" x="436" y="-360.8" font-family="Arial" font-size="12.00">version · rateBps</text>
<polygon fill="none" stroke="#8caf9a" points="429,-323 429,-351.4 536.38,-351.4 536.38,-323 429,-323"/>
<text xml:space="preserve" text-anchor="start" x="436" y="-332.4" font-family="Arial" font-size="12.00">feeFor(amount)</text>
</g>
<!-- FeePolicy&#45;&gt;AgreementSnapshot -->
<g id="edge5" class="edge">
<title>FeePolicy&#45;&gt;AgreementSnapshot</title>
<path fill="none" stroke="#668071" d="M487.5,-323.4C487.5,-293.98 487.5,-254.86 487.5,-227.09"/>
<text xml:space="preserve" text-anchor="middle" x="506.96" y="-275.6" font-family="Arial" font-size="10.00">áp dụng</text>
<text xml:space="preserve" text-anchor="middle" x="493.42" y="-236.78" font-family="Arial" font-size="10.00">0..*</text>
<text xml:space="preserve" text-anchor="middle" x="481.58" y="-307.71" font-family="Arial" font-size="10.00">1</text>
</g>
<!-- DisputeDecision -->
<g id="node8" class="node">
<title>DisputeDecision</title>
<path fill="#f2f8f4" stroke="none" d="M401.5,-85.6C401.5,-85.6 223.5,-85.6 223.5,-85.6 217.5,-85.6 211.5,-79.6 211.5,-73.6 211.5,-73.6 211.5,-12 211.5,-12 211.5,-6 217.5,0 223.5,0 223.5,0 401.5,0 401.5,0 407.5,0 413.5,-6 413.5,-12 413.5,-12 413.5,-73.6 413.5,-73.6 413.5,-79.6 407.5,-85.6 401.5,-85.6"/>
<polygon fill="#185b3e" stroke="none" points="211.5,-57.2 211.5,-85.6 403.61,-85.6 403.61,-57.2 211.5,-57.2"/>
<polygon fill="none" stroke="#8caf9a" points="211.5,-57.2 211.5,-85.6 403.61,-85.6 403.61,-57.2 211.5,-57.2"/>
<text xml:space="preserve" text-anchor="start" x="260.54" y="-68.8" font-family="Arial" font-weight="bold" font-size="12.00" fill="white">DisputeDecision</text>
<polygon fill="#f7fbf8" stroke="none" points="211.5,0 211.5,-57.2 403.61,-57.2 403.61,0 211.5,0"/>
<polygon fill="none" stroke="#8caf9a" points="211.5,0 211.5,-57.2 403.61,-57.2 403.61,0 211.5,0"/>
<text xml:space="preserve" text-anchor="start" x="218.5" y="-38.2" font-family="Arial" font-size="12.00">approvedLaborAmount</text>
<text xml:space="preserve" text-anchor="start" x="218.5" y="-23.8" font-family="Arial" font-size="12.00">computedFee · computedRefund</text>
<text xml:space="preserve" text-anchor="start" x="254.52" y="-9.4" font-family="Arial" font-size="12.00">decidedBy · reason</text>
</g>
<!-- Dispute&#45;&gt;DisputeDecision -->
<g id="edge7" class="edge">
<title>Dispute&#45;&gt;DisputeDecision</title>
<path fill="none" stroke="#668071" d="M311.8,-146.95C311.93,-127.54 312.08,-104.78 312.22,-85.59"/>
<polygon fill="#668071" stroke="#668071" points="311.8,-146.88 314.57,-151.1 311.74,-155.28 308.97,-151.06 311.8,-146.88"/>
<text xml:space="preserve" text-anchor="middle" x="318.05" y="-95.32" font-family="Arial" font-size="10.00">0..1</text>
<text xml:space="preserve" text-anchor="middle" x="305.9" y="-140.45" font-family="Arial" font-size="10.00">1</text>
</g>
</g>
</svg>
